{
  "source": "C:\\Users\\Peter\\Desktop\\stuff\\MIUN\\quantitative_research\\video_compression\\videos\\BVI-HD\\BVI-HD_CDVL_videos\\ORIG\\CalmingWater_1920x1080_60fps.mp4",
  "output": "C:\\Users\\Peter\\Desktop\\stuff\\MIUN\\quantitative_research\\video_compression\\compressed_videos\\BVI-HD\\av1\\2.5\\CalmingWater_1920x1080_60fps_av1.mkv",
  "codec": "av1",
  "ok": "Input #0, mov,mp4,m4a,3gp,3g2,mj2, from 'C:\\Users\\Peter\\Desktop\\stuff\\MIUN\\quantitative_research\\video_compression\\videos\\BVI-HD\\BVI-HD_CDVL_videos\\ORIG\\CalmingWater_1920x1080_60fps.mp4':\n  Metadata:\n    major_brand     : isom\n    minor_version   : 512\n    compatible_brands: isomiso2avc1mp41\n    encoder         : Lavf54.28.101\n  Duration: 00:00:05.00, start: 0.000000, bitrate: 623787 kb/s\n  Stream #0:0[0x1](und): Video: h264 (High 4:4:4 Predictive) (avc1 / 0x31637661), yuv420p(progressive), 1920x1080, 623782 kb/s, 60 fps, 60 tbr, 60 tbn (default)\n    Metadata:\n      handler_name    : VideoHandler\n      vendor_id       : [0][0][0][0]\n[out#0/matroska @ 000001f550a290c0] Codec AVOption b:a (set bitrate (in bits/s)) has not been used for any stream. The most likely reason is either wrong type (e.g. a video option with no video streams) or that it is a private option of some decoder which was not actually used for any stream.\nStream mapping:\n  Stream #0:0 -> #0:0 (h264 (native) -> av1 (libsvtav1))\nPress [q] to stop, [?] for help\nSvt[info]: -------------------------------------------\nSvt[info]: SVT [version]:\tSVT-AV1 Encoder Lib v3.1.0-19-g6ecfe8ec\nSvt[info]: SVT [build]  :\tGCC 15.2.0\t 64 bit\nSvt[info]: LIB Build date: Aug 17 2025 11:37:13\nSvt[info]: -------------------------------------------\nSvt[info]: Level of Parallelism: 5\nSvt[info]: Number of PPCS 93\nSvt[info]: [asm level on system : up to avx2]\nSvt[info]: [asm level selected : up to avx2]\nSvt[info]: -------------------------------------------\nSvt[info]: SVT [config]: main profile\ttier (auto)\tlevel (auto)\nSvt[info]: SVT [config]: width / height / fps numerator / fps denominator \t\t: 1920 / 1080 / 60 / 1\nSvt[info]: SVT [config]: bit-depth / color format \t\t\t\t\t: 8 / YUV420\nSvt[info]: SVT [config]: preset / tune / pred struct \t\t\t\t\t: 4 / PSNR / random access\nSvt[info]: SVT [config]: gop size / mini-gop size / key-frame type \t\t\t: 321 / 16 / key frame\nSvt[info]: SVT [config]: BRC mode / target bitrate (kbps)\t\t\t\t: VBR / 2500 \nSvt[info]: SVT [config]: AQ mode / Variance Boost \t\t\t\t\t: 2 / 0\nSvt[info]: SVT [config]: sharpness / luminance-based QP bias \t\t\t\t: 0 / 0\nSvt[info]: SVT [config]: QP scale compress strength \t\t\t\t\t: 0\nSvt[info]: -------------------------------------------\nOutput #0, matroska, to 'C:\\Users\\Peter\\Desktop\\stuff\\MIUN\\quantitative_research\\video_compression\\compressed_videos\\BVI-HD\\av1\\2.5\\CalmingWater_1920x1080_60fps_av1.mkv':\n  Metadata:\n    major_brand     : isom\n    minor_version   : 512\n    compatible_brands: isomiso2avc1mp41\n    encoder         : Lavf62.3.100\n  Stream #0:0(und): Video: av1 (AV01 / 0x31305641), yuv420p(tv, progressive), 1920x1080, q=2-31, 2500 kb/s, 60 fps, 1k tbn (default)\n    Metadata:\n      encoder         : Lavc62.11.100 libsvtav1\n      handler_name    : VideoHandler\n      vendor_id       : [0][0][0][0]\n    Side data:\n      cpb: bitrate max/min/avg: 0/0/2500000 buffer size: 2500000 vbv_delay: N/A\nframe=    0 fps=0.0 q=0.0 size=       0KiB time=N/A bitrate=N/A speed=N/A elapsed=0:00:01.05    \nframe=    0 fps=0.0 q=0.0 size=       0KiB time=N/A bitrate=N/A speed=N/A elapsed=0:00:01.63    \nframe=    0 fps=0.0 q=0.0 size=       0KiB time=N/A bitrate=N/A speed=N/A elapsed=0:00:02.19    \nframe=    0 fps=0.0 q=0.0 size=       0KiB time=N/A bitrate=N/A speed=N/A elapsed=0:00:02.76    \nframe=    0 fps=0.0 q=0.0 size=       0KiB time=N/A bitrate=N/A speed=N/A elapsed=0:00:03.29    \nframe=    1 fps=0.3 q=55.0 size=       1KiB time=00:00:00.00 bitrate=N/A speed=   0x elapsed=0:00:03.83    \nframe=    1 fps=0.2 q=55.0 size=       1KiB time=00:00:00.00 bitrate=N/A speed=   0x elapsed=0:00:04.36    \nframe=    3 fps=0.6 q=59.0 size=       1KiB time=00:00:00.03 bitrate= 170.9kbits/s speed=0.00681x elapsed=0:00:04.89    \nframe=    6 fps=1.1 q=59.0 size=       1KiB time=00:00:00.08 bitrate=  68.4kbits/s speed=0.0154x elapsed=0:00:05.41    \nframe=    8 fps=1.3 q=59.0 size=       1KiB time=00:00:00.10 bitrate=  57.0kbits/s speed=0.0168x elapsed=0:00:05.94    \nframe=   12 fps=1.8 q=60.0 size=       1KiB time=00:00:00.18 bitrate=  31.1kbits/s speed=0.0282x elapsed=0:00:06.49    \nframe=   16 fps=2.3 q=59.0 size=       1KiB time=00:00:00.25 bitrate=  22.8kbits/s speed=0.0357x elapsed=0:00:07.00    \nframe=   19 fps=2.5 q=58.0 size=       1KiB time=00:00:00.30 bitrate=  19.0kbits/s speed=0.0399x elapsed=0:00:07.52    \nframe=   22 fps=2.7 q=60.0 size=       1KiB time=00:00:00.35 bitrate=  16.3kbits/s speed=0.0436x elapsed=0:00:08.03    \nframe=   25 fps=2.9 q=56.0 size=       1KiB time=00:00:00.40 bitrate=  14.2kbits/s speed=0.0466x elapsed=0:00:08.57    \nframe=   28 fps=3.1 q=61.0 size=       1KiB time=00:00:00.45 bitrate=  12.7kbits/s speed=0.0493x elapsed=0:00:09.12    \nframe=   32 fps=3.3 q=61.0 size=       1KiB time=00:00:00.51 bitrate=  11.0kbits/s speed=0.0534x elapsed=0:00:09.67    \nframe=   34 fps=3.3 q=61.0 size=       1KiB time=00:00:00.55 bitrate=  10.4kbits/s speed=0.054x elapsed=0:00:10.19    \nframe=   37 fps=3.4 q=59.0 size=       1KiB time=00:00:00.60 bitrate=   9.5kbits/s speed=0.0559x elapsed=0:00:10.73    \nframe=   39 fps=3.5 q=60.0 size=       1KiB time=00:00:00.63 bitrate=   9.0kbits/s speed=0.0561x elapsed=0:00:11.29    \nframe=   42 fps=3.5 q=61.0 size=       1KiB time=00:00:00.66 bitrate=   8.5kbits/s speed=0.0561x elapsed=0:00:11.87    \nframe=   45 fps=3.6 q=59.0 size=       1KiB time=00:00:00.73 bitrate=   7.8kbits/s speed=0.059x elapsed=0:00:12.43    \nframe=   49 fps=3.8 q=54.0 size=       1KiB time=00:00:00.80 bitrate=   7.1kbits/s speed=0.0617x elapsed=0:00:12.95    \nframe=   52 fps=3.8 q=61.0 size=       1KiB time=00:00:00.85 bitrate=   6.7kbits/s speed=0.0629x elapsed=0:00:13.50    \nframe=   54 fps=3.8 q=61.0 size=       1KiB time=00:00:00.88 bitrate=   6.4kbits/s speed=0.063x elapsed=0:00:14.03    \nframe=   55 fps=3.8 q=60.0 size=       1KiB time=00:00:00.90 bitrate=   6.3kbits/s speed=0.0617x elapsed=0:00:14.58    \nframe=   59 fps=3.9 q=60.0 size=       1KiB time=00:00:00.96 bitrate=   5.9kbits/s speed=0.0637x elapsed=0:00:15.16    \nframe=   64 fps=4.1 q=62.0 size=       1KiB time=00:00:01.05 bitrate=   5.4kbits/s speed=0.0667x elapsed=0:00:15.73    \nframe=   68 fps=4.2 q=63.0 size=       1KiB time=00:00:01.11 bitrate=   5.1kbits/s speed=0.0685x elapsed=0:00:16.31    \nframe=   71 fps=4.2 q=62.0 size=       1KiB time=00:00:01.16 bitrate=   4.9kbits/s speed=0.0692x elapsed=0:00:16.85    \nframe=   75 fps=4.3 q=62.0 size=       1KiB time=00:00:01.23 bitrate=   4.6kbits/s speed=0.0706x elapsed=0:00:17.46    \nframe=   79 fps=4.4 q=61.0 size=       1KiB time=00:00:01.30 bitrate=   4.4kbits/s speed=0.072x elapsed=0:00:18.05    \nframe=   82 fps=4.4 q=61.0 size=       1KiB time=00:00:01.35 bitrate=   4.2kbits/s speed=0.0723x elapsed=0:00:18.66    \nframe=   85 fps=4.4 q=61.0 size=       1KiB time=00:00:01.40 bitrate=   4.1kbits/s speed=0.0729x elapsed=0:00:19.19    \nframe=   87 fps=4.4 q=61.0 size=       1KiB time=00:00:01.43 bitrate=   4.0kbits/s speed=0.0726x elapsed=0:00:19.75    \nframe=   90 fps=4.4 q=61.0 size=       1KiB time=00:00:01.48 bitrate=   3.8kbits/s speed=0.0728x elapsed=0:00:20.37    \nframe=   92 fps=4.4 q=61.0 size=       1KiB time=00:00:01.51 bitrate=   3.8kbits/s speed=0.0726x elapsed=0:00:20.89    \nframe=   96 fps=4.5 q=61.0 size=       1KiB time=00:00:01.58 bitrate=   3.6kbits/s speed=0.0738x elapsed=0:00:21.46    \nframe=   99 fps=4.5 q=60.0 size=       1KiB time=00:00:01.63 bitrate=   3.5kbits/s speed=0.0741x elapsed=0:00:22.03    \nframe=  102 fps=4.5 q=61.0 size=       1KiB time=00:00:01.68 bitrate=   3.4kbits/s speed=0.0746x elapsed=0:00:22.57    \nframe=  103 fps=4.5 q=60.0 size=       1KiB time=00:00:01.70 bitrate=   3.4kbits/s speed=0.0736x elapsed=0:00:23.10    \nframe=  106 fps=4.5 q=61.0 size=       1KiB time=00:00:01.75 bitrate=   3.3kbits/s speed=0.0739x elapsed=0:00:23.69    \nframe=  110 fps=4.5 q=61.0 size=       1KiB time=00:00:01.81 bitrate=   3.1kbits/s speed=0.0749x elapsed=0:00:24.26    \nframe=  113 fps=4.6 q=57.0 size=       1KiB time=00:00:01.86 bitrate=   3.1kbits/s speed=0.0752x elapsed=0:00:24.80    \nframe=  116 fps=4.6 q=61.0 size=       1KiB time=00:00:01.91 bitrate=   3.0kbits/s speed=0.0757x elapsed=0:00:25.32    \nframe=  118 fps=4.6 q=61.0 size=       1KiB time=00:00:01.95 bitrate=   2.9kbits/s speed=0.0754x elapsed=0:00:25.85    \nframe=  120 fps=4.5 q=61.0 size=       1KiB time=00:00:01.98 bitrate=   2.9kbits/s speed=0.0752x elapsed=0:00:26.38    \nframe=  125 fps=4.6 q=59.0 size=       1KiB time=00:00:02.05 bitrate=   2.8kbits/s speed=0.0762x elapsed=0:00:26.90    \nframe=  130 fps=4.7 q=62.0 size=       1KiB time=00:00:02.15 bitrate=   2.6kbits/s speed=0.0784x elapsed=0:00:27.44    \nframe=  134 fps=4.8 q=62.0 size=       1KiB time=00:00:02.21 bitrate=   2.6kbits/s speed=0.0792x elapsed=0:00:27.99    \nframe=  135 fps=4.7 q=61.0 size=       1KiB time=00:00:02.23 bitrate=   2.6kbits/s speed=0.0781x elapsed=0:00:28.59    \nframe=  139 fps=4.8 q=61.0 size=       1KiB time=00:00:02.30 bitrate=   2.5kbits/s speed=0.079x elapsed=0:00:29.10    \nframe=  144 fps=4.9 q=61.0 size=       1KiB time=00:00:02.38 bitrate=   2.4kbits/s speed=0.0805x elapsed=0:00:29.62    \nframe=  148 fps=4.9 q=61.0 size=       1KiB time=00:00:02.45 bitrate=   2.3kbits/s speed=0.0813x elapsed=0:00:30.14    \nframe=  151 fps=4.9 q=60.0 size=       1KiB time=00:00:02.50 bitrate=   2.3kbits/s speed=0.0815x elapsed=0:00:30.66    \nframe=  155 fps=5.0 q=60.0 size=       1KiB time=00:00:02.56 bitrate=   2.2kbits/s speed=0.0822x elapsed=0:00:31.21    \nframe=  160 fps=5.0 q=61.0 size=       1KiB time=00:00:02.65 bitrate=   2.1kbits/s speed=0.0834x elapsed=0:00:31.75    \nframe=  166 fps=5.1 q=61.0 size=       1KiB time=00:00:02.75 bitrate=   2.1kbits/s speed=0.0852x elapsed=0:00:32.27    \nframe=  167 fps=5.1 q=60.0 size=       1KiB time=00:00:02.76 bitrate=   2.1kbits/s speed=0.0844x elapsed=0:00:32.78    \nframe=  173 fps=5.2 q=58.0 size=       1KiB time=00:00:02.86 bitrate=   2.0kbits/s speed=0.0861x elapsed=0:00:33.30    \nframe=  178 fps=5.3 q=61.0 size=       1KiB time=00:00:02.95 bitrate=   1.9kbits/s speed=0.0872x elapsed=0:00:33.84    \nframe=  182 fps=5.3 q=61.0 size=       1KiB time=00:00:03.01 bitrate=   1.9kbits/s speed=0.0878x elapsed=0:00:34.35    \nframe=  185 fps=5.3 q=58.0 size=       1KiB time=00:00:03.06 bitrate=   1.9kbits/s speed=0.0879x elapsed=0:00:34.87    \nframe=  190 fps=5.4 q=61.0 size=       1KiB time=00:00:03.15 bitrate=   1.8kbits/s speed=0.089x elapsed=0:00:35.39    \nframe=  195 fps=5.4 q=61.0 size=       1KiB time=00:00:03.23 bitrate=   1.8kbits/s speed=0.09x elapsed=0:00:35.91    \nframe=  199 fps=5.5 q=61.0 size=       1KiB time=00:00:03.30 bitrate=   1.7kbits/s speed=0.0906x elapsed=0:00:36.43    \nframe=  205 fps=5.5 q=58.0 size=       1KiB time=00:00:03.40 bitrate=   1.7kbits/s speed=0.0919x elapsed=0:00:36.99    \nframe=  209 fps=5.6 q=55.0 size=       1KiB time=00:00:03.46 bitrate=   1.6kbits/s speed=0.0923x elapsed=0:00:37.54    \nframe=  213 fps=5.6 q=59.0 size=       1KiB time=00:00:03.53 bitrate=   1.6kbits/s speed=0.0928x elapsed=0:00:38.06    \nframe=  217 fps=5.6 q=58.0 size=       1KiB time=00:00:03.60 bitrate=   1.6kbits/s speed=0.0933x elapsed=0:00:38.56    \nframe=  223 fps=5.7 q=59.0 size=       1KiB time=00:00:03.70 bitrate=   1.5kbits/s speed=0.0947x elapsed=0:00:39.09    \nframe=  229 fps=5.8 q=57.0 size=       1KiB time=00:00:03.80 bitrate=   1.5kbits/s speed=0.0959x elapsed=0:00:39.62    \nframe=  233 fps=5.8 q=57.0 size=       1KiB time=00:00:03.86 bitrate=   1.5kbits/s speed=0.0963x elapsed=0:00:40.13    \nframe=  235 fps=5.8 q=59.0 size=       1KiB time=00:00:03.90 bitrate=   1.5kbits/s speed=0.0959x elapsed=0:00:40.65    \nframe=  241 fps=5.9 q=54.0 size=       1KiB time=00:00:04.00 bitrate=   1.4kbits/s speed=0.0971x elapsed=0:00:41.18    \nframe=  245 fps=5.9 q=59.0 size=       1KiB time=00:00:04.06 bitrate=   1.4kbits/s speed=0.0975x elapsed=0:00:41.71    \nframe=  249 fps=5.9 q=57.0 size=       1KiB time=00:00:04.13 bitrate=   1.4kbits/s speed=0.0979x elapsed=0:00:42.23    \nframe=  255 fps=6.0 q=58.0 size=       1KiB time=00:00:04.23 bitrate=   1.3kbits/s speed=0.099x elapsed=0:00:42.76    \nframe=  261 fps=6.0 q=58.0 size=       1KiB time=00:00:04.33 bitrate=   1.3kbits/s speed= 0.1x elapsed=0:00:43.32    \nframe=  265 fps=6.0 q=56.0 size=       1KiB time=00:00:04.40 bitrate=   1.3kbits/s speed= 0.1x elapsed=0:00:43.85    \nframe=  269 fps=6.1 q=58.0 size=       1KiB time=00:00:04.46 bitrate=   1.3kbits/s speed=0.101x elapsed=0:00:44.38    \nframe=  275 fps=6.1 q=59.0 size=       1KiB time=00:00:04.56 bitrate=   1.2kbits/s speed=0.102x elapsed=0:00:44.90    \nframe=  281 fps=6.2 q=58.0 size=       1KiB time=00:00:04.66 bitrate=   1.2kbits/s speed=0.103x elapsed=0:00:45.43    \nframe=  285 fps=6.2 q=59.0 size=       1KiB time=00:00:04.73 bitrate=   1.2kbits/s speed=0.103x elapsed=0:00:45.95    \n[out#0/matroska @ 000001f550a290c0] video:1615KiB audio:0KiB subtitle:0KiB other streams:0KiB global headers:0KiB muxing overhead: 0.129432%\nframe=  300 fps=6.5 q=59.0 Lsize=    1617KiB time=00:00:04.98 bitrate=2658.9kbits/s speed=0.108x elapsed=0:00:46.33    \n",
  "seconds": 46.79900932312012,
  "probe_out": {}
}